<?xml version="1.0" encoding="utf-8"?>
<!-- Generator: Adobe Illustrator 27.8.0, SVG Export Plug-In . SVG Version: 6.00 Build 0)  -->
<svg version="1.1" id="Ebene_1" xmlns="http://www.w3.org/2000/svg" xmlns:xlink="http://www.w3.org/1999/xlink" x="0px" y="0px"
	 viewBox="0 0 600 600" style="enable-background:new 0 0 600 600;" xml:space="preserve">
<style type="text/css">
	.st0{fill:none;}
	.st1{fill:#92B12F;}
	.st2{fill:#B4CB03;}
	.st3{fill:#53331C;}
	.st4{fill:#FFFFFF;}
	.st5{fill:#1C1E1A}
</style>
<g>
	<polygon class="st0" points="272.7,591.5 331.7,591.5 332.6,590.5 271.7,590.5 	"/>
	<polygon class="st0" points="518.5,404.7 591.5,331.7 591.5,331.3 529.5,393.6 	"/>
	<path class="st1" d="M396.9,129.7V8.5h-63.1v103.7C355.6,114.9,376.8,120.9,396.9,129.7z"/>
	<polygon class="st1" points="529.5,304.2 466.4,367.1 466.4,377.5 490.4,353.5 502.1,365.1 499.1,368.2 490.4,359.4 467.6,382.3
		475.8,390.6 472.8,393.5 466.4,387.1 466.4,456.8 518.5,404.7 529.5,393.6 	"/>
	<path class="st1" d="M353.2,480c4.4,8,6.9,17.1,6.9,26.9c0,20-10.5,37.5-26.3,47.4v35.1l63.1-63.1v-89.8L353.2,480z"/>
	<path class="st1" d="M248.5,506.9c0-10.6,3-20.5,8.1-28.9l-55.3-54.5V520l63.1,63.2v-37.4C254.5,535.8,248.5,522.1,248.5,506.9z"/>
	<path class="st1" d="M131.7,390.6l0.2-0.2v-16.1l-14.8-14.8l-8.7,8.7l-3-3l11.7-11.7l14.8,14.8v-13.2l-62.4-61.5
		c1.5-5.3,3.3-10.4,5.2-15.5l-5.9-5.9v115.4l63.1,63.1v-59.9L131.7,390.6z"/>
	<path class="st1" d="M76.4,273.8c12.6-32.1,31.7-61.3,55.4-85.9V8.5H68.8v257.7L76.4,273.8z"/>
	<path class="st1" d="M264.3,114.3V8.5h-63.1v127.9C221.3,126.1,242.4,118.6,264.3,114.3z"/>
	<polygon class="st1" points="333.9,234.3 333.9,455.5 396.9,392.4 396.9,297.4 	"/>
	<polygon class="st1" points="201.3,311.3 201.3,378.4 264.3,441.5 264.3,248.1 	"/>
	<path class="st1" d="M529.5,257.6V8.5h-63.1v166C492.4,197.7,514.1,226.1,529.5,257.6z"/>
	<path class="st2" d="M180.4,332.2c3.3,3.3,5.3,7.8,5.3,12.8c0,4.9-2,9.3-5.1,12.6l20.7,20.7v-67.1L180.4,332.2z"/>
	<path class="st2" d="M201.3,136.4V8.5h-69.4v179.5C152,167,175.6,149.5,201.3,136.4z"/>
	<polygon class="st2" points="131.8,374.2 131.8,390.3 139.9,382.3 	"/>
	<polygon class="st2" points="131.8,355.1 131.8,368.2 145.9,382.3 134.6,393.5 131.8,390.7 131.8,450.7 201.3,520.1 201.3,423.5
		"/>
	<path class="st2" d="M529.5,257.6c2.4,4.8,4.6,9.8,6.7,14.8l55.3-55.3V8.5h-62.1V257.6z"/>
	<path class="st2" d="M543,290.7l-13.6,13.6v89.4l62.1-62.3V223l-53.7,53.7C539.7,281.2,541.5,286,543,290.7z"/>
	<path class="st2" d="M306.3,110.1c9.3,0,18.4,0.8,27.6,2V8.5h-69.5v105.9C278.1,111.6,292.1,110.1,306.3,110.1z"/>
	<path class="st2" d="M304.3,562.7c-15.6,0-29.9-6.4-40-16.8l0,37.3l8.4,8.2l59,0l2.1-2.1v-35.1
		C325.3,559.6,315.2,562.7,304.3,562.7z"/>
	<path class="st2" d="M319.5,219.9c-3.3,3.9-8.2,6.4-13.8,6.4c-5.3,0-10.2-2.4-13.5-6.1l-27.9,27.9v193.3l14.9,14.9
		c7.5-3.7,15.9-5.9,24.8-5.9c10,0,19.4,2.6,27.6,7.3l2.2-2.2V234.3L319.5,219.9z M305.3,382.4c-12.9,0-23.3-10.4-23.3-23.3
		c0-12.9,10.4-23.3,23.3-23.3c12.9,0,23.3,10.4,23.3,23.3C328.6,372,318.2,382.4,305.3,382.4z"/>
	<polygon class="st2" points="68.8,266.1 68.8,8.5 8.5,8.5 8.5,206 8.5,205.9 	"/>
	<polygon class="st2" points="8.5,211.9 8.5,327.2 68.8,387.6 68.8,272.2 	"/>
	<path class="st2" d="M396.9,297.4v95l33.6-33.6c-3.9-3.3-6.4-8.2-6.4-13.8c0-5.6,2.5-10.5,6.5-13.9L396.9,297.4z"/>
	<path class="st2" d="M466.4,174.4V8.5h-69.4v121.2C422.2,140.7,445.7,155.9,466.4,174.4z"/>
	<polygon class="st2" points="461.5,382.3 466.4,377.5 466.4,367.1 396.9,436.4 396.9,526.2 466.4,456.8 466.4,387.1 	"/>
	<path class="st3" d="M466.4,174.4c-20.7-18.5-44.2-33.7-69.4-44.7c-20.1-8.7-41.3-14.8-63.1-17.6c-9.1-1.2-18.3-2-27.6-2
		c-14.1,0-28.1,1.5-41.9,4.2c-21.9,4.2-43.1,11.9-63.1,22.1c-25.6,13.1-49.2,30.6-69.4,51.5c-23.8,24.5-42.9,53.8-55.4,85.9l69,69.1
		l12.4-12.4l13.1,13.1l-12.4,12.4L286.7,484v39.6h-4.2v-37.9L74.6,278.1c-1.9,5.1-3.7,10.3-5.2,15.5l62.4,61.5l69.4,68.4l55.3,54.5
		c-5.1,8.4-8.1,18.3-8.1,28.9c0,15.2,6.1,28.9,16,39c10.1,10.4,24.3,16.8,39.9,16.8c10.9,0,21-3.1,29.5-8.5
		c15.8-9.8,26.3-27.3,26.3-47.4c0-9.8-2.5-18.9-6.9-26.9l43.6-43.5l69.4-69.3l63.1-62.9l13.6-13.6c-1.5-4.8-3.3-9.4-5.2-14.1
		L328.7,485.7v37.9h-4.2V484l128-128l-12.3-12.3l13.1-13.1l12.3,12.3l70.6-70.6c-2.1-5-4.3-9.9-6.7-14.8
		C514.1,226.1,492.4,197.7,466.4,174.4z M305.4,182.9l13.1,13.1l-13.1,13.1L292.4,196L305.4,182.9z M316,548h-23.1v-34.4H316V548z
		 M295.4,497.6v-6.9h19.9v7l-9.9,9.9L295.4,497.6z M430.6,358.8l-33.6,33.6l-63.1,63.1l-2.2,2.2c-8.1-4.6-17.6-7.3-27.6-7.3
		c-8.9,0-17.3,2.1-24.8,5.9l-14.9-14.8l-63.1-63.1l-20.7-20.7c3.1-3.3,5.1-7.7,5.1-12.6c0-5-2-9.5-5.3-12.8l20.9-20.9l63.1-63.2
		l27.8-27.8c3.3,3.7,8.1,6.1,13.5,6.1c5.5,0,10.4-2.5,13.8-6.4l14.3,14.3l63.1,63.1l33.8,33.8c-4,3.3-6.5,8.3-6.5,13.9
		C424.1,350.6,426.7,355.4,430.6,358.8z"/>
	<rect x="297.2" y="518" class="st3" width="14.6" height="25.9"/>
	<path class="st3" d="M305.3,335.8c-12.9,0-23.3,10.4-23.3,23.3c0,12.9,10.4,23.3,23.3,23.3c12.9,0,23.3-10.4,23.3-23.3
		C328.6,346.3,318.2,335.8,305.3,335.8z M320.8,361H291v-6.6h29.8V361z"/>

		<rect x="296.3" y="186.7" transform="matrix(0.7071 -0.7071 0.7071 0.7071 -49.0918 273.4021)" class="st4" width="18.4" height="18.4"/>

		<rect x="443.6" y="334.6" transform="matrix(0.7071 -0.7071 0.7071 0.7071 -110.1407 420.7692)" class="st4" width="18.4" height="17.4"/>

		<rect x="149.4" y="334.1" transform="matrix(0.7071 -0.7071 0.7071 0.7071 -196.4043 212.395)" class="st4" width="17.5" height="18.4"/>
	<rect x="291" y="354.4" class="st4" width="29.8" height="6.6"/>
	<polygon class="st4" points="315.3,490.7 295.4,490.7 295.4,497.6 305.3,507.6 315.3,497.7 	"/>
	<polygon class="st4" points="465.5,343 452.5,356 324.4,484 324.4,523.7 328.7,523.7 328.7,485.7 537.9,276.7 591.5,223 591.5,217
		536.2,272.3 	"/>
	<polygon class="st4" points="74.6,278.1 282.3,485.7 282.3,523.7 286.6,523.7 286.6,484 158.5,355.9 145.5,342.9 76.4,273.8
		68.8,266.1 8.5,205.9 8.5,206 8.5,211.9 68.8,272.2 	"/>
	<polygon class="st4" points="105.3,365.1 108.4,368.2 117.1,359.4 131.8,374.2 139.9,382.3 131.8,390.3 131.7,390.6 131.8,390.7
		134.6,393.5 145.9,382.3 131.8,368.2 117.1,353.5 	"/>
	<polygon class="st4" points="466.4,387.1 472.8,393.5 475.8,390.6 467.6,382.3 490.4,359.4 499.1,368.2 502.1,365.1 490.4,353.5
		466.4,377.5 461.5,382.3 	"/>
	<path class="st4" d="M293,548H316v-34.4H293V548z M297.2,518h14.6v25.9h-14.6V518z"/>
	<path class="st5" d="M0,0v600h600V0H0z M591.5,217v6v108.3v0.3l-73,73l-52.1,52.1l-69.4,69.4l-63.1,63.1l-2,2l-0.1,0.1h-59
		l-0.9-0.9l-7.5-7.3l-63.1-63.1l-69.4-69.4l-63.1-63.1L8.5,327.3V211.9V206V8.5h60.3h63.1h69.4h63.1h69.4h63.1h69.4h63.1h62.1
		L591.5,217L591.5,217z"/>
</g>
</svg>
