<?xml version="1.0" encoding="utf-8"?>
<!-- Generator: Adobe Illustrator 27.8.0, SVG Export Plug-In . SVG Version: 6.00 Build 0)  -->
<svg version="1.1" id="Ebene_1" xmlns="http://www.w3.org/2000/svg" xmlns:xlink="http://www.w3.org/1999/xlink" x="0px" y="0px"
	 viewBox="0 0 87.19 97.34" style="enable-background:new 0 0 87.19 97.34;" xml:space="preserve">
<style type="text/css">
	.st0{fill:none;}
	.st1{fill:#92B12F;}
	.st2{fill:#B4CB03;}
	.st3{fill:#53331C;}
	.st4{fill:#FFFFFF;}
	.st5{fill:#261B15;}
</style>
<g>
	<polygon class="st0" points="41.98,84.2 48.93,84.2 49.04,84.08 41.87,84.08 	"/>
	<polygon class="st0" points="70.94,62.19 79.54,53.59 79.54,53.55 72.23,60.89 	"/>
	<path class="st1" d="M56.62,29.8V15.52h-7.43v12.21C51.75,28.06,54.25,28.76,56.62,29.8z"/>
	<polygon class="st1" points="72.23,50.36 64.8,57.77 64.8,58.99 67.63,56.16 69.01,57.53 68.65,57.89 67.63,56.86 64.94,59.55 
		65.91,60.53 65.56,60.88 64.8,60.12 64.8,68.33 70.94,62.19 72.23,60.89 	"/>
	<path class="st1" d="M51.47,71.06c0.52,0.94,0.81,2.02,0.81,3.17c0,2.36-1.24,4.42-3.1,5.58v4.13l7.43-7.43V65.93L51.47,71.06z"/>
	<path class="st1" d="M39.13,74.23c0-1.25,0.35-2.41,0.96-3.41l-6.52-6.42v11.38L41,83.22v-4.4C39.84,77.64,39.13,76.02,39.13,74.23
		z"/>
	<path class="st1" d="M25.37,60.53l0.02-0.02v-1.9l-1.74-1.74l-1.02,1.02l-0.35-0.35l1.38-1.38l1.74,1.74v-1.55l-7.35-7.24
		c0.18-0.62,0.39-1.23,0.61-1.83l-0.7-0.7v13.6l7.43,7.43v-7.06L25.37,60.53z"/>
	<path class="st1" d="M18.86,46.77c1.48-3.78,3.74-7.22,6.53-10.12V15.52h-7.43v30.36L18.86,46.77z"/>
	<path class="st1" d="M41,27.99V15.52h-7.43v15.07C35.93,29.38,38.42,28.49,41,27.99z"/>
	<polygon class="st1" points="49.19,42.12 49.19,68.18 56.62,60.75 56.62,49.55 	"/>
	<polygon class="st1" points="33.57,51.19 33.57,59.1 41,66.53 41,43.75 	"/>
	<path class="st1" d="M72.23,44.86V15.52H64.8v19.55C67.87,37.81,70.42,41.15,72.23,44.86z"/>
	<path class="st2" d="M31.11,53.65c0.39,0.39,0.62,0.92,0.62,1.51c0,0.58-0.23,1.1-0.6,1.49l2.44,2.44v-7.91L31.11,53.65z"/>
	<path class="st2" d="M33.57,30.59V15.52h-8.18v21.14C27.77,34.19,30.55,32.13,33.57,30.59z"/>
	<polygon class="st2" points="25.39,58.6 25.39,60.5 26.34,59.55 	"/>
	<polygon class="st2" points="25.39,56.35 25.39,57.89 27.05,59.55 25.72,60.88 25.39,60.55 25.39,67.61 33.57,75.79 33.57,64.41 	
		"/>
	<path class="st2" d="M72.23,44.86c0.28,0.57,0.54,1.16,0.79,1.74l6.52-6.52V15.52h-7.31V44.86z"/>
	<path class="st2" d="M73.83,48.77l-1.6,1.6v10.53l7.31-7.34V40.79l-6.32,6.32C73.44,47.65,73.65,48.21,73.83,48.77z"/>
	<path class="st2" d="M45.94,27.49c1.09,0,2.17,0.1,3.25,0.23V15.52H41v12.47C42.62,27.67,44.27,27.49,45.94,27.49z"/>
	<path class="st2" d="M45.71,80.81c-1.84,0-3.51-0.76-4.7-1.98v4.4l0.86,0.86h7.18l0.14-0.14v-4.13
		C48.18,80.44,46.99,80.81,45.71,80.81z"/>
	<path class="st2" d="M47.5,40.43c-0.39,0.46-0.97,0.75-1.62,0.75c-0.63,0-1.2-0.28-1.59-0.72L41,43.75v22.77l1.75,1.75
		c0.88-0.44,1.87-0.69,2.92-0.69c1.18,0,2.29,0.31,3.25,0.86l0.26-0.26V42.12L47.5,40.43z M45.83,59.57c-1.52,0-2.74-1.23-2.74-2.74
		c0-1.52,1.23-2.74,2.74-2.74c1.52,0,2.74,1.23,2.74,2.74C48.57,58.34,47.34,59.57,45.83,59.57z"/>
	<polygon class="st2" points="17.96,45.87 17.96,15.52 10.86,15.52 10.86,38.79 10.86,38.78 	"/>
	<polygon class="st2" points="10.86,39.48 10.86,53.07 17.96,60.18 17.96,46.58 	"/>
	<path class="st2" d="M56.62,49.55v11.19l3.96-3.96c-0.46-0.39-0.75-0.97-0.75-1.62c0-0.66,0.3-1.24,0.77-1.64L56.62,49.55z"/>
	<path class="st2" d="M64.8,35.06V15.52h-8.18V29.8C59.59,31.09,62.36,32.88,64.8,35.06z"/>
	<polygon class="st2" points="64.23,59.55 64.8,58.99 64.8,57.77 56.62,65.93 56.62,76.51 64.8,68.33 64.8,60.12 	"/>
	<path class="st3" d="M64.8,35.06c-2.44-2.18-5.21-3.97-8.18-5.27c-2.37-1.03-4.86-1.74-7.43-2.07c-1.07-0.14-2.16-0.23-3.25-0.23
		c-1.66,0-3.31,0.18-4.93,0.49c-2.58,0.5-5.08,1.4-7.43,2.6c-3.02,1.54-5.8,3.6-8.18,6.07c-2.8,2.89-5.05,6.34-6.53,10.12L27,54.91
		l1.46-1.46l1.54,1.54l-1.46,1.46l15.09,15.09v4.67h-0.5v-4.46L18.65,47.28c-0.22,0.6-0.43,1.21-0.61,1.83l7.35,7.24l8.18,8.06
		l6.52,6.42c-0.6,0.99-0.96,2.16-0.96,3.41c0,1.79,0.72,3.41,1.88,4.6c1.19,1.22,2.86,1.98,4.7,1.98c1.28,0,2.47-0.37,3.48-1
		c1.86-1.16,3.1-3.22,3.1-5.58c0-1.15-0.3-2.23-0.81-3.17l5.14-5.13l8.18-8.16l7.43-7.41l1.6-1.6c-0.18-0.56-0.39-1.11-0.61-1.66
		L48.58,71.74v4.46h-0.5v-4.67l15.08-15.08l-1.45-1.45l1.54-1.54l1.45,1.45l8.32-8.32c-0.25-0.59-0.51-1.17-0.79-1.74
		C70.42,41.15,67.87,37.81,64.8,35.06z M45.84,36.07l1.54,1.54l-1.54,1.54l-1.54-1.54L45.84,36.07z M47.08,79.08h-2.72v-4.05h2.72
		V79.08z M44.66,73.14v-0.81H47v0.82l-1.17,1.17L44.66,73.14z M60.58,56.79l-3.96,3.96l-7.43,7.43l-0.26,0.26
		c-0.96-0.54-2.07-0.86-3.25-0.86c-1.05,0-2.04,0.25-2.92,0.69L41,66.53l-7.43-7.43l-2.44-2.44c0.37-0.39,0.6-0.91,0.6-1.49
		c0-0.59-0.24-1.12-0.62-1.51l2.46-2.46L41,43.75l3.28-3.28c0.39,0.44,0.96,0.72,1.59,0.72c0.65,0,1.23-0.3,1.62-0.75l1.69,1.69
		l7.43,7.43l3.98,3.98c-0.47,0.39-0.77,0.98-0.77,1.64C59.82,55.82,60.12,56.39,60.58,56.79z"/>
	<rect x="44.87" y="75.54" class="st3" width="1.72" height="3.05"/>
	<path class="st3" d="M45.83,54.08c-1.52,0-2.74,1.23-2.74,2.74c0,1.52,1.23,2.74,2.74,2.74c1.52,0,2.74-1.23,2.74-2.74
		C48.57,55.31,47.34,54.08,45.83,54.08z M47.65,57.05h-3.51v-0.78h3.51V57.05z"/>
	
		<rect x="44.76" y="36.52" transform="matrix(0.7071 -0.7071 0.7071 0.7071 -13.162 43.4306)" class="st4" width="2.17" height="2.17"/>
	
		<rect x="62.12" y="53.94" transform="matrix(0.7071 -0.7071 0.7071 0.7071 -20.3531 60.7915)" class="st4" width="2.17" height="2.05"/>
	
		<rect x="27.46" y="53.87" transform="matrix(0.7071 -0.7071 0.7071 0.7071 -30.5102 36.2448)" class="st4" width="2.06" height="2.17"/>
	<rect x="44.14" y="56.27" class="st4" width="3.51" height="0.78"/>
	<polygon class="st4" points="47,72.33 44.66,72.33 44.66,73.14 45.83,74.32 47,73.15 	"/>
	<polygon class="st4" points="64.7,54.92 63.16,56.46 48.08,71.54 48.08,76.21 48.58,76.21 48.58,71.74 73.22,47.11 79.54,40.79 
		79.54,40.08 73.02,46.6 	"/>
	<polygon class="st4" points="18.65,47.28 43.12,71.74 43.12,76.21 43.62,76.21 43.62,71.54 28.53,56.45 27,54.91 18.86,46.77 
		17.96,45.87 10.86,38.78 10.86,38.79 10.86,39.48 17.96,46.58 	"/>
	<polygon class="st4" points="22.27,57.53 22.63,57.89 23.65,56.86 25.39,58.6 26.34,59.55 25.39,60.5 25.37,60.53 25.39,60.55 
		25.72,60.88 27.05,59.55 25.39,57.89 23.65,56.16 	"/>
	<polygon class="st4" points="64.8,60.12 65.56,60.88 65.91,60.53 64.94,59.55 67.63,56.86 68.65,57.89 69.01,57.53 67.63,56.16 
		64.8,58.99 64.23,59.55 	"/>
	<path class="st4" d="M44.37,79.08h2.72v-4.05h-2.72V79.08z M44.87,75.54h1.72v3.05h-1.72V75.54z"/>
	<path class="st5" d="M9.86,14.52V85.2h70.68V14.52H9.86z M79.54,40.08v0.71v12.76v0.04l-8.6,8.6l-6.14,6.14l-8.18,8.18l-7.43,7.43
		l-0.14,0.14l-0.11,0.11h-6.95l-0.11-0.11L41,83.22l-7.43-7.43l-8.18-8.18l-7.43-7.43l-7.1-7.1v-13.6v-0.69V15.52h7.1h7.43h8.18H41
		h8.18h7.43h8.18h7.43h7.31V40.08z"/>
</g>
</svg>
